<svg width="27" height="27" viewBox="0 0 27 27" fill="none" xmlns="http://www.w3.org/2000/svg">
<g clip-path="url(#clip0_31_69)">
<path d="M20.7816 9.76525C21.1781 9.36881 21.4009 8.8311 21.401 8.27039C21.401 7.70968 21.1784 7.1719 20.7819 6.77537C20.3855 6.37884 19.8478 6.15603 19.2871 6.15596C18.7264 6.15589 18.1886 6.37856 17.7921 6.775L7.78256 16.7867C7.60843 16.9604 7.47965 17.1741 7.40756 17.4092L6.41681 20.6732C6.39743 20.7381 6.39596 20.807 6.41258 20.8726C6.42919 20.9383 6.46325 20.9982 6.51116 21.046C6.55907 21.0938 6.61903 21.1278 6.68468 21.1443C6.75033 21.1608 6.81923 21.1592 6.88406 21.1397L10.1488 20.1497C10.3837 20.0783 10.5974 19.9503 10.7713 19.777L20.7816 9.76525Z" stroke="#2563EB" stroke-width="2" stroke-linecap="round" stroke-linejoin="round"/>
<path d="M16.1511 8.40625L19.1511 11.4062" stroke="#2563EB" stroke-width="2" stroke-linecap="round" stroke-linejoin="round"/>
</g>
<defs>
<clipPath id="clip0_31_69">
<rect width="18" height="18" fill="white" transform="translate(4.90106 4.65625)"/>
</clipPath>
</defs>
</svg>
