<svg width="65" height="65" viewBox="0 0 65 65" fill="none" xmlns="http://www.w3.org/2000/svg">
<path d="M0.5 32.5C0.5 14.8269 14.8269 0.5 32.5 0.5C50.1731 0.5 64.5 14.8269 64.5 32.5C64.5 50.1731 50.1731 64.5 32.5 64.5C14.8269 64.5 0.5 50.1731 0.5 32.5Z" fill="#DBEAFE"/>
<path d="M41.8333 44.5V41.8333C41.8333 40.4188 41.2714 39.0623 40.2712 38.0621C39.271 37.0619 37.9145 36.5 36.5 36.5H28.5C27.0855 36.5 25.7289 37.0619 24.7288 38.0621C23.7286 39.0623 23.1667 40.4188 23.1667 41.8333V44.5" stroke="#2563EB" stroke-width="2" stroke-linecap="round" stroke-linejoin="round"/>
<path d="M32.5 31.1667C35.4455 31.1667 37.8333 28.7789 37.8333 25.8333C37.8333 22.8878 35.4455 20.5 32.5 20.5C29.5545 20.5 27.1667 22.8878 27.1667 25.8333C27.1667 28.7789 29.5545 31.1667 32.5 31.1667Z" stroke="#2563EB" stroke-width="2" stroke-linecap="round" stroke-linejoin="round"/>
</svg>
