<svg width="21" height="20" viewBox="0 0 21 20" fill="none" xmlns="http://www.w3.org/2000/svg">
<path d="M13.7709 17.5V15.8333C13.7709 14.9493 13.4197 14.1014 12.7945 13.4763C12.1694 12.8512 11.3216 12.5 10.4375 12.5H5.43752C4.55347 12.5 3.70562 12.8512 3.0805 13.4763C2.45538 14.1014 2.10419 14.9493 2.10419 15.8333V17.5" stroke="white" stroke-width="2" stroke-linecap="round" stroke-linejoin="round"/>
<path d="M7.93752 9.16667C9.77847 9.16667 11.2709 7.67428 11.2709 5.83333C11.2709 3.99238 9.77847 2.5 7.93752 2.5C6.09657 2.5 4.60419 3.99238 4.60419 5.83333C4.60419 7.67428 6.09657 9.16667 7.93752 9.16667Z" stroke="white" stroke-width="2" stroke-linecap="round" stroke-linejoin="round"/>
<path d="M16.2708 6.66666V11.6667" stroke="white" stroke-width="2" stroke-linecap="round" stroke-linejoin="round"/>
<path d="M18.7708 9.16666H13.7708" stroke="white" stroke-width="2" stroke-linecap="round" stroke-linejoin="round"/>
</svg>
